# xmcd
#
# Track frame offsets:
#	150
#	19741
#	31162
#	45534
#	59590
#	73425
#	85562
#	97558
#	113075
#	127085
#	137114
#	148314
#
# Disc length: 2295 seconds
# Revision: 0
# Processed by: cddbd v1.5.2PL0 Copyright (c) Steve Scherf et al.
# Submitted via: dBpowerAMP V12.0
#
DISCID=a708f50c
DTITLE=The Wiyos - Broken Land Bell
DYEAR=2009
DGENRE=Blues
TTITLE0=Roll On Down the Road
TTITLE1=Promenade
TTITLE2=Stomp
TTITLE3=Dontchaletemcatchya
TTITLE4=All Aboard
TTITLE5=Angeline
TTITLE6=Green Bottle #6
TTITLE7=Don't Spill the Sugar
TTITLE8=Drum
TTITLE9=Redbird
TTITLE10=Uncork the Whiskey
TTITLE11=Valentina
EXTD=
EXTT0=
EXTT1=
EXTT2=
EXTT3=
EXTT4=
EXTT5=
EXTT6=
EXTT7=
EXTT8=
EXTT9=
EXTT10=
EXTT11=
PLAYORDER=
